<?xml version="1.0" encoding="UTF-8"?>
<svg id="Layer_1" data-name="Layer 1" xmlns="http://www.w3.org/2000/svg" viewBox="140 150 800 800">
  <defs>
    <style>
      .cls-1 {
        fill: #03e9f4;
      }
    </style>
  </defs>
  <path class="cls-1" d="m812.44,488.15l-13.71,25.53c.19,0,.38-.03.58-.03,6.41,0,12.01,3.39,15.16,8.46l14.18-26.39c-.52.05-1.04.08-1.56.08-6.06,0-11.41-3.03-14.64-7.65Z"/>
  <path class="cls-1" d="m782.22,526.29l-51.52,2.72c1.55,5.86,2.91,11.74,4.06,17.66l51.74-2.73c-3.12-3.22-5.05-7.6-5.05-12.43,0-1.82.28-3.57.78-5.22Z"/>
  <path class="cls-1" d="m793.48,523.44l5.24-9.75c-7.79.25-14.32,5.47-16.5,12.61l3.7-.2,1.09,17.82-.53.03c3.24,3.34,7.78,5.42,12.8,5.42,9.86,0,17.86-7.99,17.86-17.86,0-3.45-1-6.66-2.69-9.4l-5.18,9.64-15.8-8.31Z"/>
  <path class="cls-1" d="m799.3,513.65c-.19,0-.38.02-.58.03l-5.24,9.75,15.8,8.31,5.18-9.64c-3.15-5.07-8.75-8.46-15.16-8.46Z"/>
  <path class="cls-1" d="m785.93,526.09l-3.7.2c-.5,1.65-.78,3.4-.78,5.22,0,4.84,1.93,9.22,5.05,12.43l.53-.03-1.09-17.82Z"/>
  <path class="cls-1" d="m827.46,460.09c-.06,0-.13.01-.19.01,1.54.02,3.02.23,4.45.62l17.46-28.4h-.62l-17.45,28.15c-1.18-.24-2.4-.37-3.64-.37Z"/>
  <path class="cls-1" d="m822.78,460.64l-17.42-28.33h-2.47c-7.39,0-14.54-1.72-20.96-4.89l28.07,45.27c1.83-5.95,6.69-10.54,12.77-12.05Z"/>
  <path class="cls-1" d="m851.26,432.31h-2.08l-17.46,28.4c6.37,1.71,11.33,6.84,12.77,13.31l29.1-47.34c-6.76,3.62-14.4,5.62-22.33,5.62Z"/>
  <path class="cls-1" d="m810.01,472.69c-.51,1.66-.79,3.42-.79,5.25,0,3.8,1.2,7.31,3.22,10.21l3.32-6.18-5.75-9.27Z"/>
  <path class="cls-1" d="m835.07,483.74l-6.44,11.98c9.13-.79,16.29-8.44,16.29-17.78,0-1.35-.16-2.65-.44-3.91l-6.93,11.28-2.48-1.57Z"/>
  <path class="cls-1" d="m825.51,477.69l-8.91,5.63-.84-1.35-3.32,6.18c3.23,4.62,8.58,7.65,14.64,7.65.53,0,1.05-.03,1.56-.08l6.44-11.98-9.57-6.05Z"/>
  <path class="cls-1" d="m823.5,460.58l4.17,6.72,4.04-6.58c-1.42-.38-2.91-.6-4.45-.62-1.3.02-2.55.2-3.76.48Z"/>
  <path class="cls-1" d="m822.17,470.03l2.88,1.52,2.62-4.25-4.17-6.72c-.22.05-.46.08-.68.14l-.04-.07c-6.08,1.51-10.94,6.1-12.77,12.05l5.75,9.27,6.41-11.94Z"/>
  <polygon class="cls-1" points="825.05 471.55 822.17 470.03 815.76 481.97 816.6 483.32 825.51 477.69 822.46 475.76 825.05 471.55"/>
  <path class="cls-1" d="m831.71,460.72l-4.04,6.58,4.02,6.48-1.09.69,7.37,3.88-2.89,5.39,2.48,1.57,6.93-11.28c-1.45-6.47-6.41-11.6-12.77-13.31Z"/>
  <polygon class="cls-1" points="835.07 483.74 837.97 478.35 830.6 474.47 825.51 477.69 835.07 483.74"/>
  <polygon class="cls-1" points="830.6 474.47 831.69 473.78 827.67 467.29 825.05 471.55 830.6 474.47"/>
  <polygon class="cls-1" points="822.46 475.76 825.51 477.69 830.6 474.47 825.05 471.55 822.46 475.76"/>
  <path class="cls-1" d="m823.43,460.46l-17.45-28.15h-.62l17.42,28.33c.22-.05.43-.14.65-.18Z"/>
  <path class="cls-1" d="m827.07,460.09c-1.25,0-2.47.13-3.64.37l.07.12c1.22-.28,2.47-.46,3.76-.48-.06,0-.13-.01-.19-.01Z"/>
  <path class="cls-1" d="m822.78,460.64l.04.07c.22-.06.46-.09.68-.14l-.07-.12c-.22.05-.43.13-.65.18Z"/>
  <path class="cls-1" d="m910.91,320.92l-22.57-39.09c-7.9-13.68-22.5-22.12-38.3-22.12h-45.14c-15.8,0-30.4,8.43-38.3,22.12l-22.57,39.09c-7.9,13.68-7.9,30.55,0,44.23l22.57,39.09c1.3,2.25,2.79,4.34,4.42,6.28l-9.66-15.72,12.65-8c-4.78-1.84-8.18-6.47-8.18-11.89,0-6.16,4.37-11.3,10.17-12.49,1.73-.97,3.72-1.54,5.84-1.54,6.57,0,11.9,5.33,11.9,11.9,0,3.9-1.89,7.36-4.79,9.53-2.31,3.24-6.09,5.35-10.37,5.35-.23,0-.45-.02-.68-.03l7.27,11.82c.53-.75,1.15-1.44,1.82-2.06,1.92-3.99,5.99-6.75,10.72-6.75,6.57,0,11.9,5.33,11.9,11.9,0,1.97-.49,3.83-1.34,5.47-.55,5.86-5.07,10.55-10.84,11.39l4.19,6.82c1.08.08,2.17.13,3.27.13h45.14c.76,0,1.51-.04,2.27-.08l4.68-7.55c-4.36-1.64-7.57-5.59-8.16-10.36-.97-1.72-1.52-3.7-1.52-5.82,0-6.57,5.33-11.9,11.9-11.9,4.63,0,8.64,2.65,10.61,6.52.12.1.23.21.35.32l6.09-9.82c-4.24-.04-7.97-2.14-10.26-5.35-2.9-2.17-4.79-5.62-4.79-9.53,0-6.57,5.33-11.9,11.9-11.9,2.12,0,4.11.56,5.84,1.54,5.81,1.19,10.17,6.33,10.17,12.49,0,6.79-5.31,12.33-12,12.72l14.49,9.16-10.32,16.65c2.71-2.71,5.1-5.79,7.07-9.2l22.57-39.09c7.9-13.68,7.9-30.55,0-44.23Zm-64.25-42.87c.61-6.47,6.06-11.54,12.69-11.54,7.04,0,12.75,5.71,12.75,12.75,0,3.73-1.61,7.07-4.16,9.41-1.92,3.99-5.99,6.75-10.72,6.75-6.57,0-11.9-5.33-11.9-11.9,0-1.97.49-3.83,1.34-5.47Zm10.57,33.1c0,4.23-2.07,7.97-5.24,10.29-2.17,2.3-5.24,3.74-8.65,3.74-6.57,0-11.9-5.33-11.9-11.9,0-.92.11-1.81.31-2.67.29-6.79,5.87-12.21,12.73-12.21s12.75,5.71,12.75,12.75Zm-17,31.88c0,7.04-5.71,12.75-12.75,12.75s-12.75-5.71-12.75-12.75,5.71-12.75,12.75-12.75,12.75,5.71,12.75,12.75Zm-12.75-76.52c7.04,0,12.75,5.71,12.75,12.75,0,1.62-.32,3.17-.87,4.6-.18,6.41-5.43,11.56-11.89,11.56s-11.7-5.15-11.89-11.56c-.55-1.43-.87-2.97-.87-4.6,0-7.04,5.71-12.75,12.75-12.75Zm-2.13,44.64c0,.1-.01.19-.01.29.09.6.16,1.21.16,1.84,0,6.57-5.33,11.9-11.9,11.9-3.57,0-6.77-1.58-8.95-4.07-2.92-2.34-4.8-5.93-4.8-9.96,0-7.04,5.71-12.75,12.75-12.75s12.75,5.71,12.75,12.75Zm-31.88-44.64c6.51,0,11.88,4.89,12.65,11.19.97,1.72,1.52,3.7,1.52,5.82,0,6.57-5.33,11.9-11.9,11.9-4.63,0-8.64-2.65-10.61-6.52-2.7-2.34-4.41-5.78-4.41-9.64,0-7.04,5.71-12.75,12.75-12.75Zm-14.88,31.88c4.28,0,8.06,2.12,10.37,5.35,2.9,2.17,4.79,5.62,4.79,9.53,0,6.57-5.33,11.9-11.9,11.9-2.12,0-4.11-.56-5.84-1.54-5.81-1.19-10.17-6.33-10.17-12.49,0-7.04,5.71-12.75,12.75-12.75Zm-12.43,56.53c-1.42.55-2.96.86-4.57.86-7.04,0-12.75-5.71-12.75-12.75s5.71-12.75,12.75-12.75c1.61,0,3.15.31,4.57.86,6.49.1,11.72,5.38,11.72,11.89s-5.23,11.8-11.72,11.89Zm27.31.86c-7.04,0-12.75-5.71-12.75-12.75s5.71-12.75,12.75-12.75c2.05,0,3.99.5,5.71,1.36,4.9,1.48,8.47,6.02,8.47,11.39s-3.57,9.92-8.47,11.39c-1.72.86-3.65,1.36-5.71,1.36Zm6.38,19.13c0-4.03,1.88-7.62,4.8-9.96,2.18-2.49,5.38-4.07,8.95-4.07,6.57,0,11.9,5.33,11.9,11.9,0,.63-.06,1.24-.16,1.84,0,.1.01.19.01.29,0,7.04-5.71,12.75-12.75,12.75s-12.75-5.71-12.75-12.75Zm29.76,44.64c-7.04,0-12.75-5.71-12.75-12.75,0-1.46.26-2.86.71-4.17,0-.03,0-.05,0-.08,0-6.57,5.33-11.9,11.9-11.9s11.46,4.92,11.86,11.13c.66,1.54,1.03,3.24,1.03,5.02,0,7.04-5.71,12.75-12.75,12.75Zm14.88-31.88c-6.86,0-12.44-5.42-12.73-12.21-.2-.86-.31-1.75-.31-2.67,0-6.57,5.33-11.9,11.9-11.9,3.41,0,6.48,1.44,8.65,3.74,3.17,2.32,5.24,6.06,5.24,10.29,0,7.04-5.71,12.75-12.75,12.75Zm14.88-31.88c-2.19,0-4.26-.55-6.06-1.53-4.64-1.63-7.97-6.03-7.97-11.22s3.33-9.6,7.97-11.22c1.8-.98,3.87-1.53,6.06-1.53,7.04,0,12.75,5.71,12.75,12.75s-5.71,12.75-12.75,12.75Zm1.84-42.51c0-3.9,1.89-7.36,4.79-9.53,2.31-3.24,6.09-5.35,10.37-5.35,7.04,0,12.75,5.71,12.75,12.75,0,6.16-4.37,11.3-10.17,12.49-1.73.97-3.72,1.54-5.84,1.54-6.57,0-11.9-5.33-11.9-11.9Zm30.04,42.51c-1.62,0-3.17-.32-4.6-.87-6.41-.18-11.56-5.43-11.56-11.89s5.15-11.7,11.56-11.89c1.43-.55,2.97-.87,4.6-.87,7.04,0,12.75,5.71,12.75,12.75s-5.71,12.75-12.75,12.75Z"/>
  <path class="cls-1" d="m807.62,343.03c0-5.38-3.57-9.92-8.47-11.39,4.18,2.1,7.05,6.4,7.05,11.39s-2.87,9.3-7.05,11.39c4.9-1.48,8.47-6.02,8.47-11.39Z"/>
  <path class="cls-1" d="m766.14,331.14c4.78,1.84,8.18,6.46,8.18,11.89s-3.4,10.05-8.18,11.89c6.49-.1,11.72-5.38,11.72-11.89s-5.23-11.8-11.72-11.89Z"/>
  <path class="cls-1" d="m878.47,343.03c0-5.42,3.39-10.04,8.16-11.89-6.41.18-11.56,5.43-11.56,11.89s5.15,11.7,11.56,11.89c-4.77-1.85-8.16-6.47-8.16-11.89Z"/>
  <path class="cls-1" d="m846.59,343.03c0-4.85,2.71-9.07,6.7-11.22-4.64,1.63-7.97,6.03-7.97,11.22s3.33,9.6,7.97,11.22c-3.99-2.16-6.7-6.37-6.7-11.22Z"/>
  <path class="cls-1" d="m778.57,323.9c-.88,0-1.75-.09-2.58-.26,1.73.97,3.72,1.54,5.84,1.54,6.57,0,11.9-5.33,11.9-11.9,0-3.9-1.89-7.36-4.79-9.53,1.49,2.09,2.38,4.64,2.38,7.4,0,7.04-5.71,12.75-12.75,12.75Z"/>
  <path class="cls-1" d="m812.58,323.9c-3.01,0-5.77-1.05-7.96-2.8,2.18,2.49,5.38,4.07,8.95,4.07,6.57,0,11.9-5.33,11.9-11.9,0-.63-.06-1.24-.16-1.84-.15,6.91-5.79,12.47-12.74,12.47Z"/>
  <path class="cls-1" d="m876.35,323.9c-7.04,0-12.75-5.71-12.75-12.75,0-2.76.89-5.31,2.38-7.4-2.9,2.17-4.79,5.62-4.79,9.53,0,6.57,5.33,11.9,11.9,11.9,2.12,0,4.11-.56,5.84-1.54-.83.17-1.7.26-2.58.26Z"/>
  <path class="cls-1" d="m831.71,311.15c0-.18.02-.36.03-.54-.2.86-.31,1.75-.31,2.67,0,6.57,5.33,11.9,11.9,11.9,3.41,0,6.48-1.44,8.65-3.74-2.11,1.54-4.7,2.46-7.51,2.46-7.04,0-12.75-5.71-12.75-12.75Z"/>
  <path class="cls-1" d="m808.33,406.8c0,.41-.02.82-.06,1.22.85-1.64,1.34-3.49,1.34-5.47,0-6.57-5.33-11.9-11.9-11.9-4.72,0-8.79,2.76-10.72,6.75,2.27-2.07,5.28-3.35,8.59-3.35,7.04,0,12.75,5.71,12.75,12.75Z"/>
  <path class="cls-1" d="m829.58,394.05c5.26,0,9.77,3.18,11.72,7.73-.4-6.21-5.55-11.13-11.86-11.13s-11.9,5.33-11.9,11.9c0,.03,0,.05,0,.08,1.73-4.99,6.46-8.58,12.04-8.58Z"/>
  <path class="cls-1" d="m861.47,394.05c3.19,0,6.1,1.18,8.34,3.12-1.97-3.87-5.97-6.52-10.61-6.52-6.57,0-11.9,5.33-11.9,11.9,0,2.11.56,4.09,1.52,5.82-.06-.51-.11-1.03-.11-1.56,0-7.04,5.71-12.75,12.75-12.75Z"/>
  <path class="cls-1" d="m791.32,374.92c0,2.76-.89,5.31-2.38,7.4,2.9-2.17,4.79-5.62,4.79-9.53,0-6.57-5.33-11.9-11.9-11.9-2.12,0-4.11.56-5.84,1.54.83-.17,1.7-.26,2.58-.26,7.04,0,12.75,5.71,12.75,12.75Z"/>
  <path class="cls-1" d="m825.32,374.63c.09-.6.16-1.21.16-1.84,0-6.57-5.33-11.9-11.9-11.9-3.57,0-6.77,1.58-8.95,4.07,2.18-1.75,4.94-2.8,7.96-2.8,6.95,0,12.59,5.56,12.74,12.47Z"/>
  <path class="cls-1" d="m876.35,362.17c.88,0,1.75.09,2.58.26-1.73-.97-3.72-1.54-5.84-1.54-6.57,0-11.9,5.33-11.9,11.9,0,3.9,1.89,7.36,4.79,9.53-1.49-2.09-2.38-4.64-2.38-7.4,0-7.04,5.71-12.75,12.75-12.75Z"/>
  <path class="cls-1" d="m844.46,362.17c2.81,0,5.41.92,7.51,2.46-2.17-2.3-5.24-3.74-8.65-3.74-6.57,0-11.9,5.33-11.9,11.9,0,.92.11,1.81.31,2.67,0-.18-.03-.36-.03-.54,0-7.04,5.71-12.75,12.75-12.75Z"/>
  <path class="cls-1" d="m793.45,292.02c-3.19,0-6.1-1.18-8.34-3.12,1.97,3.87,5.97,6.52,10.61,6.52,6.57,0,11.9-5.33,11.9-11.9,0-2.11-.56-4.09-1.52-5.82.06.51.11,1.03.11,1.56,0,7.04-5.71,12.75-12.75,12.75Z"/>
  <path class="cls-1" d="m827.46,292.02c-5.42,0-10.04-3.39-11.89-8.16.18,6.41,5.43,11.56,11.89,11.56s11.7-5.15,11.89-11.56c-1.85,4.77-6.47,8.16-11.89,8.16Z"/>
  <path class="cls-1" d="m857.22,295.42c4.72,0,8.79-2.76,10.72-6.75-2.27,2.07-5.28,3.35-8.59,3.35-7.04,0-12.75-5.71-12.75-12.75,0-.41.02-.82.06-1.22-.85,1.64-1.34,3.49-1.34,5.47,0,6.57,5.33,11.9,11.9,11.9Z"/>
  <path class="cls-1" d="m877.1,387.64c-.25.01-.5.04-.75.04-.04,0-.07,0-.11,0l-6.09,9.82c2.5,2.33,4.07,5.64,4.07,9.32,0,7.04-5.71,12.75-12.75,12.75-1.58,0-3.09-.3-4.49-.83l-4.68,7.55c11.02-.56,21.31-5.2,28.97-12.84l10.32-16.65-14.49-9.16Z"/>
  <path class="cls-1" d="m795.57,419.56c-7.04,0-12.75-5.71-12.75-12.75,0-2.74.87-5.27,2.34-7.35l-7.27-11.82c-1.37-.07-2.68-.36-3.9-.83l-12.65,8,9.66,15.72c7.63,9.1,18.65,14.82,30.61,15.7l-4.19-6.82c-.61.09-1.22.15-1.85.15Z"/>
  <path class="cls-1" d="m870.15,397.48c-.11-.11-.23-.21-.35-.32.08.16.16.33.24.49l.11-.18Z"/>
  <path class="cls-1" d="m877.1,387.64l-.6-.38-.26.41s.07,0,.11,0c.25,0,.5-.02.75-.04Z"/>
  <path class="cls-1" d="m725.39,529.29l5.31-.28c-2.83-10.68-6.26-21.26-10.18-31.7-4.89-13.03-9.81-26.05-14.67-39.09-17.01-48.45-32.85-97.17-45.13-147.11-6.41-26.07-17.91-50.1-34.03-72.1-18.47-25.2-50.74-38.92-83.8-39.62-.98-.02-1.96-.01-2.93-.02-.98,0-1.95,0-2.93.02-33.06.7-65.33,14.42-83.8,39.62-16.12,22-27.62,46.03-34.03,72.1-12.28,49.94-28.11,98.66-45.13,147.11-4.86,13.03-9.78,26.05-14.67,39.09-4.16,11.09-7.79,22.33-10.71,33.69l5.09.27-1.09,17.82-7.91-.42c-2.68,14.44-4.08,29.05-3.8,43.8-.97,47.9,17.71,88.76,52.78,117.84l19.34-14.74,10.95,14.11-15.32,11.68c5.1,3.34,10.45,6.49,16.08,9.4,35.43,18.35,73.98,23.57,111.34,24.13,1.27,0,2.53-.02,3.8-.03,1.27.01,2.53.03,3.8.03,37.37-.56,75.91-5.78,111.34-24.13,6.16-3.19,11.99-6.66,17.52-10.36l-14.06-10.72,10.95-14.11,17.95,13.68c34.24-29,52.44-69.46,51.48-116.77.29-15.44-1.26-30.72-4.19-45.81l-8.27.44-1.09-17.82Zm-245.12-85.08c-17.53,0-31.74-14.21-31.74-31.74s14.21-31.74,31.74-31.74,31.74,14.21,31.74,31.74-14.21,31.74-31.74,31.74Zm121.02,0c-17.53,0-31.74-14.21-31.74-31.74s14.21-31.74,31.74-31.74,31.74,14.21,31.74,31.74-14.21,31.74-31.74,31.74Z"/>
  <path class="cls-1" d="m725.39,529.29l1.09,17.82,8.27-.44c-1.15-5.92-2.51-11.81-4.06-17.66l-5.31.28Z"/>
  <path class="cls-1" d="m279.9,515.64c.19,0,.38.02.58.03l-13.71-25.53c-3.23,4.62-8.58,7.65-14.64,7.65-.53,0-1.05-.03-1.56-.08l14.18,26.39c3.15-5.07,8.75-8.46,15.16-8.46Z"/>
  <path class="cls-1" d="m296.97,528.27c.5,1.65.78,3.4.78,5.22,0,4.84-1.93,9.22-5.05,12.43l52.1,2.75c1.1-5.92,2.41-11.81,3.92-17.67l-51.74-2.73Z"/>
  <path class="cls-1" d="m353.8,531.27l-5.09-.27c-1.5,5.86-2.82,11.75-3.92,17.67l7.91.42,1.09-17.82Z"/>
  <path class="cls-1" d="m293.27,528.07l3.7.2c-2.18-7.14-8.71-12.36-16.5-12.61l5.24,9.75-15.8,8.31-5.18-9.64c-1.7,2.73-2.69,5.94-2.69,9.4,0,9.86,7.99,17.86,17.86,17.86,5.02,0,9.56-2.08,12.8-5.42l-.53-.03,1.1-17.82Z"/>
  <path class="cls-1" d="m285.71,525.42l-5.24-9.75c-.19,0-.38-.03-.58-.03-6.41,0-12.01,3.39-15.16,8.46l5.18,9.64,15.8-8.31Z"/>
  <path class="cls-1" d="m296.97,528.27l-3.7-.2-1.1,17.82.53.03c3.12-3.22,5.05-7.6,5.05-12.43,0-1.82-.28-3.57-.78-5.22Z"/>
  <path class="cls-1" d="m354.53,765.8l3.77,35.52h12.86c1.77,0,3.49.21,5.15.58l-4.03-38.01c-.16.11-.3.24-.46.35-5.29,3.61-11.83,3.97-17.29,1.56Z"/>
  <path class="cls-1" d="m365.33,732.01c4.39.9,8.46,3.43,11.18,7.42,1.02,1.5,1.78,3.1,2.3,4.75l29.94-22.83c-5.28-3.46-10.27-7.14-14.97-11.04l-28.45,21.69Z"/>
  <path class="cls-1" d="m413.12,695.57l-19.34,14.74c4.7,3.9,9.69,7.58,14.97,11.04l15.32-11.68-10.95-14.11Z"/>
  <path class="cls-1" d="m364.91,732.32l.42-.32c-4.56-.93-9.48-.1-13.63,2.73-8.15,5.56-10.25,16.67-4.69,24.81,1.95,2.85,4.58,4.94,7.52,6.25l-1.15-10.88,17.74-2.03,1.17,11.01c6.29-4.59,8.75-12.59,6.53-19.71l-2.95,2.25-10.95-14.11Z"/>
  <path class="cls-1" d="m353.37,754.92l1.15,10.88c5.46,2.41,12,2.06,17.29-1.56.16-.11.3-.23.46-.35l-1.17-11.01-17.74,2.03Z"/>
  <path class="cls-1" d="m365.33,732.01l-.42.32,10.95,14.11,2.95-2.25c-.51-1.65-1.27-3.25-2.3-4.75-2.73-4-6.79-6.53-11.18-7.42Z"/>
  <path class="cls-1" d="m710.82,764.24c-.16-.11-.3-.23-.46-.35l-3.13,29.49h17.96l2.93-27.59c-5.46,2.41-12,2.06-17.29-1.56Z"/>
  <path class="cls-1" d="m703.83,744.18c.51-1.65,1.27-3.25,2.3-4.75,2.73-4,6.79-6.53,11.18-7.42l-29.84-22.75c-4.65,3.93-9.6,7.64-14.83,11.15l31.2,23.78Z"/>
  <path class="cls-1" d="m658.57,709.68l14.06,10.72c5.23-3.5,10.19-7.21,14.83-11.15l-17.95-13.68-10.95,14.11Z"/>
  <path class="cls-1" d="m706.78,746.43l-2.95-2.25c-2.22,7.12.23,15.11,6.53,19.71l1.17-11.01,17.74,2.03-1.15,10.88c2.94-1.3,5.57-3.39,7.52-6.25,5.56-8.15,3.46-19.26-4.69-24.81-4.15-2.83-9.07-3.66-13.63-2.73l.42.32-10.95,14.11Z"/>
  <path class="cls-1" d="m711.53,752.88l-1.17,11.01c.16.11.3.24.46.35,5.29,3.61,11.83,3.97,17.29,1.56l1.15-10.88-17.74-2.03Z"/>
  <path class="cls-1" d="m706.13,739.43c-1.02,1.5-1.78,3.1-2.3,4.75l2.95,2.25,10.95-14.11-.42-.32c-4.39.9-8.46,3.43-11.18,7.42Z"/>
  <path class="cls-1" d="m269.19,474.68l28.07-45.27c-6.41,3.16-13.56,4.89-20.96,4.89h-3.08l-17.45,28.15c6.39,1.33,11.53,6.07,13.42,12.23Z"/>
  <path class="cls-1" d="m247.48,462.7l-17.46-28.4h-2.08c-7.93,0-15.57-2-22.33-5.62l29.1,47.34c1.45-6.47,6.41-11.6,12.77-13.31Z"/>
  <path class="cls-1" d="m241.64,487.29l-6.93-11.28c-.28,1.26-.44,2.57-.44,3.91,0,9.33,7.16,16.98,16.29,17.78l-6.44-11.98-2.48,1.57Z"/>
  <path class="cls-1" d="m266.76,490.13c2.02-2.89,3.22-6.41,3.22-10.21,0-1.83-.28-3.59-.79-5.25l-5.75,9.27,3.32,6.18Z"/>
  <path class="cls-1" d="m266.76,490.13l-3.32-6.18-.84,1.35-8.91-5.63-9.57,6.05,6.44,11.98c.52.05,1.04.08,1.56.08,6.06,0,11.41-3.03,14.64-7.65Z"/>
  <path class="cls-1" d="m252.12,462.07c-1.61,0-3.16.23-4.64.63l4.04,6.58,4.24-6.83c-1.18-.24-2.4-.37-3.64-.37Z"/>
  <path class="cls-1" d="m255.77,462.44l-4.24,6.83,2.62,4.25,2.88-1.52,6.41,11.94,5.75-9.27c-1.89-6.16-7.03-10.91-13.42-12.23Z"/>
  <polygon class="cls-1" points="254.14 473.53 256.73 477.75 253.69 479.67 262.6 485.3 263.44 483.95 257.03 472.02 254.14 473.53"/>
  <path class="cls-1" d="m244.12,485.72l-2.89-5.39,7.37-3.88-1.09-.69,4.02-6.48-4.04-6.58c-6.37,1.71-11.33,6.84-12.77,13.31l6.93,11.28,2.48-1.57Z"/>
  <polygon class="cls-1" points="241.23 480.33 244.12 485.72 253.69 479.67 248.6 476.45 241.23 480.33"/>
  <polygon class="cls-1" points="251.53 469.28 247.51 475.76 248.6 476.45 254.14 473.53 251.53 469.28"/>
  <polygon class="cls-1" points="254.14 473.53 248.6 476.45 253.69 479.67 256.73 477.75 254.14 473.53"/>
  <path class="cls-1" d="m198.66,388.8c-4.78-1.84-8.18-6.47-8.18-11.89,0-6.16,4.37-11.3,10.17-12.49,1.73-.97,3.72-1.54,5.84-1.54,6.57,0,11.9,5.33,11.9,11.9,0,3.9-1.89,7.36-4.79,9.53-2.31,3.24-6.09,5.35-10.37,5.35-.23,0-.45-.02-.68-.03l7.27,11.82c.53-.75,1.15-1.44,1.82-2.06,1.92-3.99,5.99-6.75,10.72-6.75,6.57,0,11.9,5.33,11.9,11.9,0,1.97-.49,3.83-1.34,5.47-.55,5.86-5.07,10.55-10.84,11.39l4.19,6.82c1.08.08,2.17.13,3.27.13h45.14c.76,0,1.51-.04,2.27-.08l4.68-7.55c-4.36-1.64-7.57-5.59-8.16-10.36-.97-1.72-1.52-3.7-1.52-5.82,0-6.57,5.33-11.9,11.9-11.9,4.63,0,8.64,2.65,10.61,6.52.12.1.23.21.35.32l6.09-9.82c-4.24-.04-7.97-2.14-10.26-5.35-2.9-2.17-4.79-5.62-4.79-9.53,0-6.57,5.33-11.9,11.9-11.9,2.12,0,4.11.56,5.84,1.54,5.81,1.19,10.17,6.33,10.17,12.49,0,6.79-5.31,12.33-12,12.72l14.49,9.16-10.32,16.65c2.71-2.71,5.1-5.79,7.07-9.2l22.57-39.09c7.9-13.68,7.9-30.55,0-44.23l-22.57-39.09c-7.9-13.68-22.5-22.12-38.3-22.12h-45.14c-15.8,0-30.4,8.43-38.3,22.12l-22.57,39.09c-7.9,13.68-7.9,30.55,0,44.23l22.57,39.09c1.3,2.25,2.79,4.34,4.42,6.28l-9.66-15.72,12.65-8Zm19.45-31.03c-7.04,0-12.75-5.71-12.75-12.75s5.71-12.75,12.75-12.75c2.05,0,3.99.5,5.71,1.36,4.9,1.48,8.47,6.02,8.47,11.39s-3.57,9.92-8.47,11.39c-1.72.86-3.65,1.36-5.71,1.36Zm6.38,19.13c0-4.03,1.88-7.62,4.8-9.96,2.18-2.49,5.38-4.07,8.95-4.07,6.57,0,11.9,5.33,11.9,11.9,0,.63-.06,1.24-.16,1.84,0,.1.01.19.01.29,0,7.04-5.71,12.75-12.75,12.75s-12.75-5.71-12.75-12.75Zm14.88-31.88c0-7.04,5.71-12.75,12.75-12.75s12.75,5.71,12.75,12.75-5.71,12.75-12.75,12.75-12.75-5.71-12.75-12.75Zm14.88,76.52c-7.04,0-12.75-5.71-12.75-12.75,0-1.46.26-2.86.71-4.17,0-.03,0-.05,0-.08,0-6.57,5.33-11.9,11.9-11.9s11.46,4.92,11.86,11.13c.66,1.54,1.03,3.24,1.03,5.02,0,7.04-5.71,12.75-12.75,12.75Zm14.88-31.88c-6.86,0-12.44-5.42-12.73-12.21-.2-.86-.31-1.75-.31-2.67,0-6.57,5.33-11.9,11.9-11.9,3.41,0,6.48,1.44,8.65,3.74,3.17,2.32,5.24,6.06,5.24,10.29,0,7.04-5.71,12.75-12.75,12.75Zm14.88-31.88c-2.19,0-4.26-.55-6.06-1.53-4.64-1.63-7.97-6.03-7.97-11.22s3.33-9.6,7.97-11.22c1.8-.98,3.87-1.53,6.06-1.53,7.04,0,12.75,5.71,12.75,12.75s-5.71,12.75-12.75,12.75Zm44.64-12.75c0,7.04-5.71,12.75-12.75,12.75-1.62,0-3.17-.32-4.6-.87-6.41-.18-11.56-5.43-11.56-11.89s5.15-11.7,11.56-11.89c1.43-.55,2.97-.87,4.6-.87,7.04,0,12.75,5.71,12.75,12.75Zm-14.88-31.88c0,6.16-4.37,11.3-10.17,12.49-1.73.97-3.72,1.54-5.84,1.54-6.57,0-11.9-5.33-11.9-11.9,0-3.9,1.89-7.36,4.79-9.53,2.31-3.24,6.09-5.35,10.37-5.35,7.04,0,12.75,5.71,12.75,12.75Zm-42.45-33.1c.61-6.47,6.06-11.54,12.69-11.54,7.04,0,12.75,5.71,12.75,12.75,0,3.73-1.61,7.07-4.16,9.41-1.92,3.99-5.99,6.75-10.72,6.75-6.57,0-11.9-5.33-11.9-11.9,0-1.97.49-3.83,1.34-5.47Zm10.57,33.1c0,4.23-2.07,7.97-5.24,10.29-2.17,2.3-5.24,3.74-8.65,3.74-6.57,0-11.9-5.33-11.9-11.9,0-.92.11-1.81.31-2.67.29-6.79,5.87-12.21,12.73-12.21s12.75,5.71,12.75,12.75Zm-29.76-44.64c7.04,0,12.75,5.71,12.75,12.75,0,1.62-.32,3.17-.87,4.6-.18,6.41-5.43,11.56-11.89,11.56s-11.7-5.15-11.89-11.56c-.55-1.43-.87-2.97-.87-4.6,0-7.04,5.71-12.75,12.75-12.75Zm-2.13,44.64c0,.1-.01.19-.01.29.09.6.16,1.21.16,1.84,0,6.57-5.33,11.9-11.9,11.9-3.57,0-6.77-1.58-8.95-4.07-2.92-2.34-4.8-5.93-4.8-9.96,0-7.04,5.71-12.75,12.75-12.75s12.75,5.71,12.75,12.75Zm-31.88-44.64c6.51,0,11.88,4.89,12.65,11.19.97,1.72,1.52,3.7,1.52,5.82,0,6.57-5.33,11.9-11.9,11.9-4.63,0-8.64-2.65-10.61-6.52-2.7-2.34-4.41-5.78-4.41-9.64,0-7.04,5.71-12.75,12.75-12.75Zm-14.88,31.88c4.28,0,8.06,2.12,10.37,5.35,2.9,2.17,4.79,5.62,4.79,9.53,0,6.57-5.33,11.9-11.9,11.9-2.12,0-4.11-.56-5.84-1.54-5.81-1.19-10.17-6.33-10.17-12.49,0-7.04,5.71-12.75,12.75-12.75Zm-29.76,44.64c0-7.04,5.71-12.75,12.75-12.75,1.61,0,3.15.31,4.57.86,6.49.1,11.72,5.38,11.72,11.89s-5.23,11.8-11.72,11.89c-1.42.55-2.96.86-4.57.86-7.04,0-12.75-5.71-12.75-12.75Z"/>
  <path class="cls-1" d="m232.28,345.02c0-5.38-3.57-9.92-8.47-11.39,4.18,2.1,7.05,6.4,7.05,11.39s-2.87,9.3-7.05,11.39c4.9-1.48,8.47-6.02,8.47-11.39Z"/>
  <path class="cls-1" d="m198.98,345.02c0,5.43-3.4,10.05-8.18,11.89,6.49-.1,11.72-5.38,11.72-11.89s-5.23-11.8-11.72-11.89c4.78,1.84,8.18,6.46,8.18,11.89Z"/>
  <path class="cls-1" d="m303.14,345.02c0-5.42,3.39-10.04,8.16-11.89-6.41.18-11.56,5.43-11.56,11.89s5.15,11.7,11.56,11.89c-4.77-1.85-8.16-6.47-8.16-11.89Z"/>
  <path class="cls-1" d="m271.25,345.02c0-4.85,2.71-9.07,6.7-11.22-4.64,1.63-7.97,6.03-7.97,11.22s3.33,9.6,7.97,11.22c-3.99-2.16-6.7-6.37-6.7-11.22Z"/>
  <path class="cls-1" d="m203.23,325.89c-.88,0-1.75-.09-2.58-.26,1.73.97,3.72,1.54,5.84,1.54,6.57,0,11.9-5.33,11.9-11.9,0-3.9-1.89-7.36-4.79-9.53,1.49,2.09,2.38,4.64,2.38,7.4,0,7.04-5.71,12.75-12.75,12.75Z"/>
  <path class="cls-1" d="m237.24,325.89c-3.01,0-5.77-1.05-7.96-2.8,2.18,2.49,5.38,4.07,8.95,4.07,6.57,0,11.9-5.33,11.9-11.9,0-.63-.06-1.24-.16-1.84-.15,6.91-5.79,12.47-12.74,12.47Z"/>
  <path class="cls-1" d="m288.26,313.13c0-2.76.89-5.31,2.38-7.4-2.9,2.17-4.79,5.62-4.79,9.53,0,6.57,5.33,11.9,11.9,11.9,2.12,0,4.11-.56,5.84-1.54-.83.17-1.7.26-2.58.26-7.04,0-12.75-5.71-12.75-12.75Z"/>
  <path class="cls-1" d="m256.37,313.13c0-.18.02-.36.03-.54-.2.86-.31,1.75-.31,2.67,0,6.57,5.33,11.9,11.9,11.9,3.41,0,6.48-1.44,8.65-3.74-2.11,1.54-4.7,2.46-7.51,2.46-7.04,0-12.75-5.71-12.75-12.75Z"/>
  <path class="cls-1" d="m232.99,408.79c0,.41-.02.82-.06,1.22.85-1.64,1.34-3.49,1.34-5.47,0-6.57-5.33-11.9-11.9-11.9-4.72,0-8.79,2.76-10.72,6.75,2.27-2.07,5.28-3.35,8.59-3.35,7.04,0,12.75,5.71,12.75,12.75Z"/>
  <path class="cls-1" d="m254.25,396.03c5.26,0,9.77,3.18,11.72,7.73-.4-6.21-5.55-11.13-11.86-11.13s-11.9,5.33-11.9,11.9c0,.03,0,.05,0,.08,1.73-4.99,6.46-8.58,12.04-8.58Z"/>
  <path class="cls-1" d="m286.13,396.03c3.19,0,6.1,1.18,8.34,3.12-1.97-3.87-5.97-6.52-10.61-6.52-6.57,0-11.9,5.33-11.9,11.9,0,2.11.56,4.09,1.52,5.82-.06-.51-.11-1.03-.11-1.56,0-7.04,5.71-12.75,12.75-12.75Z"/>
  <path class="cls-1" d="m215.99,376.9c0,2.76-.89,5.31-2.38,7.4,2.9-2.17,4.79-5.62,4.79-9.53,0-6.57-5.33-11.9-11.9-11.9-2.12,0-4.11.56-5.84,1.54.83-.17,1.7-.26,2.58-.26,7.04,0,12.75,5.71,12.75,12.75Z"/>
  <path class="cls-1" d="m249.98,376.62c.09-.6.16-1.21.16-1.84,0-6.57-5.33-11.9-11.9-11.9-3.57,0-6.77,1.58-8.95,4.07,2.18-1.75,4.94-2.8,7.96-2.8,6.95,0,12.59,5.56,12.74,12.47Z"/>
  <path class="cls-1" d="m301.01,364.15c.88,0,1.75.09,2.58.26-1.73-.97-3.72-1.54-5.84-1.54-6.57,0-11.9,5.33-11.9,11.9,0,3.9,1.89,7.36,4.79,9.53-1.49-2.09-2.38-4.64-2.38-7.4,0-7.04,5.71-12.75,12.75-12.75Z"/>
  <path class="cls-1" d="m269.13,364.15c2.81,0,5.41.92,7.51,2.46-2.17-2.3-5.24-3.74-8.65-3.74-6.57,0-11.9,5.33-11.9,11.9,0,.92.11,1.81.31,2.67,0-.18-.03-.36-.03-.54,0-7.04,5.71-12.75,12.75-12.75Z"/>
  <path class="cls-1" d="m218.11,294c-3.19,0-6.1-1.18-8.34-3.12,1.97,3.87,5.97,6.52,10.61,6.52,6.57,0,11.9-5.33,11.9-11.9,0-2.11-.56-4.09-1.52-5.82.06.51.11,1.03.11,1.56,0,7.04-5.71,12.75-12.75,12.75Z"/>
  <path class="cls-1" d="m252.12,294c-5.42,0-10.04-3.39-11.89-8.16.18,6.41,5.43,11.56,11.89,11.56s11.7-5.15,11.89-11.56c-1.85,4.77-6.47,8.16-11.89,8.16Z"/>
  <path class="cls-1" d="m281.88,297.4c4.72,0,8.79-2.76,10.72-6.75-2.27,2.07-5.28,3.35-8.59,3.35-7.04,0-12.75-5.71-12.75-12.75,0-.41.02-.82.06-1.22-.85,1.64-1.34,3.49-1.34,5.47,0,6.57,5.33,11.9,11.9,11.9Z"/>
  <path class="cls-1" d="m301.76,389.62c-.25.01-.5.04-.75.04-.04,0-.07,0-.11,0l-6.09,9.82c2.5,2.33,4.07,5.64,4.07,9.32,0,7.04-5.71,12.75-12.75,12.75-1.58,0-3.09-.3-4.49-.83l-4.68,7.55c11.02-.56,21.31-5.2,28.97-12.84l10.32-16.65-14.49-9.16Z"/>
  <path class="cls-1" d="m222.09,421.39c-.61.09-1.22.15-1.85.15-7.04,0-12.75-5.71-12.75-12.75,0-2.74.87-5.27,2.34-7.35l-7.27-11.82c-1.37-.07-2.68-.36-3.9-.83l-12.65,8,9.66,15.72c7.63,9.1,18.65,14.82,30.61,15.7l-4.19-6.82Z"/>
  <path class="cls-1" d="m294.82,399.47c-.11-.11-.23-.21-.35-.32.08.16.16.33.24.49l.11-.18Z"/>
  <path class="cls-1" d="m301.76,389.62l-.6-.38-.26.41s.07,0,.11,0c.25,0,.5-.02.75-.04Z"/>
  <path class="cls-1" d="m359.77,815.2l-1.47-13.88h-28.8c-22.91,0-41.66,18.75-41.66,41.66h0c0,13.09,10.71,23.81,23.81,23.81h59.52c13.09,0,23.81-10.71,23.81-23.81v-17.86c0-11.32-8.02-20.85-18.65-23.22l1.19,11.26-17.74,2.03Z"/>
  <path class="cls-1" d="m358.29,801.32l1.47,13.88,17.74-2.03-1.19-11.26c-1.66-.37-3.38-.58-5.15-.58h-12.86Z"/>
  <path class="cls-1" d="m705.13,813.16l2.1-19.78h-.79c-13.09,0-23.81,10.71-23.81,23.81v17.86c0,13.09,10.71,23.81,23.81,23.81h59.52c13.09,0,23.81-10.71,23.81-23.81h0c0-22.91-18.75-41.66-41.66-41.66h-22.91l-2.31,21.81-17.74-2.03Z"/>
  <polygon class="cls-1" points="705.13 813.16 722.87 815.2 725.19 793.38 707.23 793.38 705.13 813.16"/>
</svg>